<?xml version="1.0" encoding="UTF-8" standalone="no"?> <svg width="48" height="48" viewBox="0 0 48 48" fill="none" xmlns="http://www.w3.org/2000/svg">
<path d="M28 33H20V41H28V33Z" fill="#8FA5A5"/>
<path d="M41 7H7C4.79086 7 3 8.79086 3 11V32C3 34.2091 4.79086 36 7 36H41C43.2091 36 45 34.2091 45 32V11C45 8.79086 43.2091 7 41 7Z" fill="#FD3730"/>
<path d="M5.1 7.5C4.4668 7.83971 3.93729 8.34439 3.56759 8.96056C3.19789 9.57673 3.00177 10.2814 3 11V32C3 33.0609 3.42143 34.0783 4.17157 34.8284C4.92172 35.5786 5.93913 36 7 36H41C41.9618 35.9969 42.8898 35.6443 43.611 35.008L5.1 7.5Z" fill="#C92424"/>
<path d="M24 12C22.1211 12 20.2844 12.5572 18.7221 13.601C17.1598 14.6449 15.9422 16.1286 15.2231 17.8645C14.5041 19.6004 14.316 21.5105 14.6825 23.3534C15.0491 25.1962 15.9539 26.8889 17.2825 28.2175C18.6111 29.5461 20.3038 30.4509 22.1466 30.8175C23.9895 31.184 25.8996 30.9959 27.6355 30.2769C29.3714 29.5578 30.8551 28.3402 31.899 26.7779C32.9428 25.2157 33.5 23.3789 33.5 21.5C33.5 18.9804 32.4991 16.5641 30.7175 14.7825C28.9359 13.0009 26.5196 12 24 12V12ZM27.476 22.366L22.524 25.225C22.372 25.3128 22.1995 25.359 22.024 25.359C21.8485 25.359 21.676 25.3128 21.524 25.225C21.372 25.1372 21.2458 25.011 21.158 24.859C21.0702 24.707 21.024 24.5345 21.024 24.359V18.641C21.024 18.4655 21.0702 18.293 21.158 18.141C21.2458 17.989 21.372 17.8628 21.524 17.775C21.676 17.6872 21.8485 17.641 22.024 17.641C22.1995 17.641 22.372 17.6872 22.524 17.775L27.476 20.634C27.628 20.7218 27.7542 20.848 27.842 21C27.9298 21.152 27.976 21.3245 27.976 21.5C27.976 21.6755 27.9298 21.848 27.842 22C27.7542 22.152 27.628 22.2782 27.476 22.366V22.366Z" fill="#EAEFF0"/>
<path d="M26.6109 22.8652L22.5239 25.2252C22.3719 25.313 22.1995 25.3592 22.0239 25.3592C21.8484 25.3592 21.676 25.313 21.5239 25.2252C21.3719 25.1375 21.2457 25.0112 21.1579 24.8592C21.0701 24.7072 21.0239 24.5348 21.0239 24.3592V18.8742L16.5239 15.6572C15.7277 16.6658 15.1446 17.8256 14.8098 19.0662C14.475 20.3069 14.3956 21.6025 14.5763 22.8748C14.757 24.147 15.1941 25.3693 15.8611 26.4677C16.528 27.566 17.4111 28.5175 18.4566 29.2646C19.5022 30.0116 20.6885 30.5386 21.9437 30.8137C23.1989 31.0887 24.4969 31.1061 25.7591 30.8648C27.0212 30.6234 28.2212 30.1284 29.2864 29.4096C30.3516 28.6908 31.2598 27.7633 31.9559 26.6832L26.6109 22.8652Z" fill="#D9E1E2"/>
<path d="M41 6H7C5.6744 6.00159 4.40356 6.52888 3.46622 7.46622C2.52888 8.40356 2.00159 9.6744 2 11V32C2.00159 33.3256 2.52888 34.5964 3.46622 35.5338C4.40356 36.4711 5.6744 36.9984 7 37H19V40H9C8.73478 40 8.48043 40.1054 8.29289 40.2929C8.10536 40.4804 8 40.7348 8 41C8 41.2652 8.10536 41.5196 8.29289 41.7071C8.48043 41.8946 8.73478 42 9 42H39C39.2652 42 39.5196 41.8946 39.7071 41.7071C39.8946 41.5196 40 41.2652 40 41C40 40.7348 39.8946 40.4804 39.7071 40.2929C39.5196 40.1054 39.2652 40 39 40H29V37H41C42.3256 36.9984 43.5964 36.4711 44.5338 35.5338C45.4711 34.5964 45.9984 33.3256 46 32V11C45.9984 9.6744 45.4711 8.40356 44.5338 7.46622C43.5964 6.52888 42.3256 6.00159 41 6V6ZM27 40H21V37H27V40ZM44 32C44 32.7956 43.6839 33.5587 43.1213 34.1213C42.5587 34.6839 41.7956 35 41 35H7C6.20435 35 5.44129 34.6839 4.87868 34.1213C4.31607 33.5587 4 32.7956 4 32V11C4 10.2044 4.31607 9.44129 4.87868 8.87868C5.44129 8.31607 6.20435 8 7 8H41C41.7956 8 42.5587 8.31607 43.1213 8.87868C43.6839 9.44129 44 10.2044 44 11V32Z" fill="black"/>
<path d="M27.9769 19.7681L23.0249 16.9091C22.7209 16.7335 22.376 16.6411 22.0249 16.6411C21.6738 16.6411 21.329 16.7335 21.0249 16.909C20.7209 17.0846 20.4684 17.337 20.2929 17.6411C20.1173 17.9451 20.0249 18.29 20.0249 18.6411V24.3591C20.0249 24.7101 20.1173 25.055 20.2929 25.359C20.4684 25.6631 20.7209 25.9155 21.0249 26.0911C21.329 26.2666 21.6738 26.359 22.0249 26.359C22.376 26.359 22.7209 26.2666 23.0249 26.0911L27.9779 23.2321C28.2819 23.0565 28.5344 22.804 28.7099 22.5C28.8854 22.196 28.9778 21.8511 28.9778 21.5001C28.9778 21.149 28.8854 20.8041 28.7099 20.5001C28.5344 20.1961 28.2819 19.9436 27.9779 19.7681H27.9769ZM22.0239 24.3591V18.6411L26.9759 21.5001L22.0239 24.3591Z" fill="black"/>
<path d="M24 11C21.9233 11 19.8932 11.6158 18.1665 12.7696C16.4398 13.9233 15.094 15.5632 14.2993 17.4818C13.5045 19.4004 13.2966 21.5116 13.7018 23.5484C14.1069 25.5852 15.1069 27.4562 16.5754 28.9246C18.0438 30.3931 19.9148 31.3931 21.9516 31.7982C23.9884 32.2034 26.0996 31.9955 28.0182 31.2007C29.9368 30.406 31.5767 29.0602 32.7304 27.3335C33.8842 25.6068 34.5 23.5767 34.5 21.5C34.4968 18.7162 33.3896 16.0473 31.4211 14.0789C29.4527 12.1104 26.7838 11.0032 24 11V11ZM24 30C22.3189 30 20.6755 29.5015 19.2777 28.5675C17.8798 27.6335 16.7904 26.306 16.147 24.7528C15.5037 23.1996 15.3354 21.4906 15.6633 19.8417C15.9913 18.1929 16.8009 16.6783 17.9896 15.4896C19.1783 14.3008 20.6929 13.4913 22.3417 13.1633C23.9906 12.8354 25.6996 13.0037 27.2528 13.647C28.806 14.2904 30.1335 15.3798 31.0675 16.7777C32.0015 18.1755 32.5 19.8189 32.5 21.5C32.4974 23.7535 31.601 25.914 30.0075 27.5075C28.414 29.101 26.2535 29.9974 24 30V30Z" fill="black"/>
</svg>
